<mxfile host="app.diagrams.net" agent="Mozilla/5.0 (Windows NT 10.0; Win64; x64) AppleWebKit/537.36 (KHTML, like Gecko) Chrome/129.0.0.0 Safari/537.36" version="24.7.16">
  <diagram name="Page-1" id="mDKHTMRurHqZ-WUgqHNy">
    <mxGraphModel grid="1" page="1" gridSize="10" guides="1" tooltips="1" connect="1" arrows="1" fold="1" pageScale="1" pageWidth="850" pageHeight="1100" math="0" shadow="0">
      <root>
        <mxCell id="0" />
        <mxCell id="1" parent="0" />
        <mxCell id="c-OSKFypWyapKS8Srcnh-1" value="Client" style="shape=umlActor;verticalLabelPosition=bottom;verticalAlign=top;html=1;outlineConnect=0;" vertex="1" parent="1">
          <mxGeometry x="20" y="620" width="30" height="60" as="geometry" />
        </mxCell>
        <mxCell id="c-OSKFypWyapKS8Srcnh-3" value="" style="swimlane;startSize=0;" vertex="1" parent="1">
          <mxGeometry x="80" y="140" width="530" height="730" as="geometry">
            <mxRectangle x="190" y="200" width="50" height="40" as="alternateBounds" />
          </mxGeometry>
        </mxCell>
        <mxCell id="c-OSKFypWyapKS8Srcnh-10" value="&amp;nbsp;Space" style="ellipse;whiteSpace=wrap;html=1;" vertex="1" parent="c-OSKFypWyapKS8Srcnh-3">
          <mxGeometry x="320" y="20" width="115" height="58" as="geometry" />
        </mxCell>
        <mxCell id="c-OSKFypWyapKS8Srcnh-15" value="Available schedule (day-time)" style="ellipse;whiteSpace=wrap;html=1;" vertex="1" parent="c-OSKFypWyapKS8Srcnh-3">
          <mxGeometry x="318.75" y="120" width="117.5" height="78" as="geometry" />
        </mxCell>
        <mxCell id="c-OSKFypWyapKS8Srcnh-16" value="&amp;lt;&amp;lt;contains&amp;gt;&amp;gt;" style="endArrow=open;endSize=12;dashed=1;html=1;rounded=0;exitX=0.5;exitY=1;exitDx=0;exitDy=0;entryX=0.5;entryY=0;entryDx=0;entryDy=0;" edge="1" parent="c-OSKFypWyapKS8Srcnh-3" source="c-OSKFypWyapKS8Srcnh-10" target="c-OSKFypWyapKS8Srcnh-15">
          <mxGeometry width="160" relative="1" as="geometry">
            <mxPoint x="210" y="232" as="sourcePoint" />
            <mxPoint x="183" y="112" as="targetPoint" />
          </mxGeometry>
        </mxCell>
        <mxCell id="c-OSKFypWyapKS8Srcnh-4" value="Online booking system" style="text;html=1;align=center;verticalAlign=middle;resizable=0;points=[];autosize=1;strokeColor=none;fillColor=none;" vertex="1" parent="c-OSKFypWyapKS8Srcnh-3">
          <mxGeometry x="125" width="140" height="30" as="geometry" />
        </mxCell>
        <mxCell id="c-OSKFypWyapKS8Srcnh-17" value="Lesson" style="ellipse;whiteSpace=wrap;html=1;" vertex="1" parent="c-OSKFypWyapKS8Srcnh-3">
          <mxGeometry x="320" y="240" width="121.25" height="70" as="geometry" />
        </mxCell>
        <mxCell id="c-OSKFypWyapKS8Srcnh-18" value="&amp;lt;&amp;lt;Contains&amp;gt;&amp;gt;" style="endArrow=open;endSize=12;dashed=1;html=1;rounded=0;exitX=0.5;exitY=1;exitDx=0;exitDy=0;entryX=0.5;entryY=0;entryDx=0;entryDy=0;" edge="1" parent="c-OSKFypWyapKS8Srcnh-3" source="c-OSKFypWyapKS8Srcnh-15" target="c-OSKFypWyapKS8Srcnh-17">
          <mxGeometry width="160" relative="1" as="geometry">
            <mxPoint x="190" y="230" as="sourcePoint" />
            <mxPoint x="350" y="230" as="targetPoint" />
          </mxGeometry>
        </mxCell>
        <mxCell id="c-OSKFypWyapKS8Srcnh-20" value="Login/Authenticate" style="ellipse;whiteSpace=wrap;html=1;" vertex="1" parent="c-OSKFypWyapKS8Srcnh-3">
          <mxGeometry x="380" y="650" width="120" height="70" as="geometry" />
        </mxCell>
        <mxCell id="c-OSKFypWyapKS8Srcnh-19" value="&amp;nbsp;Register" style="ellipse;whiteSpace=wrap;html=1;" vertex="1" parent="c-OSKFypWyapKS8Srcnh-3">
          <mxGeometry x="170" y="650" width="140" height="70" as="geometry" />
        </mxCell>
        <mxCell id="c-OSKFypWyapKS8Srcnh-25" value="take lesson offering" style="ellipse;whiteSpace=wrap;html=1;" vertex="1" parent="c-OSKFypWyapKS8Srcnh-3">
          <mxGeometry x="105" y="250" width="100" height="80" as="geometry" />
        </mxCell>
        <mxCell id="c-OSKFypWyapKS8Srcnh-26" value="&amp;lt;&amp;lt;provides&amp;gt;&amp;gt;" style="endArrow=open;endSize=12;dashed=1;html=1;rounded=0;entryX=0.97;entryY=0.413;entryDx=0;entryDy=0;entryPerimeter=0;" edge="1" parent="c-OSKFypWyapKS8Srcnh-3" target="c-OSKFypWyapKS8Srcnh-25">
          <mxGeometry width="160" relative="1" as="geometry">
            <mxPoint x="320" y="280" as="sourcePoint" />
            <mxPoint x="480" y="220" as="targetPoint" />
          </mxGeometry>
        </mxCell>
        <mxCell id="c-OSKFypWyapKS8Srcnh-27" value="Lesson for booking" style="ellipse;whiteSpace=wrap;html=1;" vertex="1" parent="c-OSKFypWyapKS8Srcnh-3">
          <mxGeometry x="70" y="380" width="120" height="80" as="geometry" />
        </mxCell>
        <mxCell id="c-OSKFypWyapKS8Srcnh-28" value="&amp;lt;&amp;lt;provides&amp;gt;&amp;gt;" style="endArrow=open;endSize=12;dashed=1;html=1;rounded=0;exitX=0;exitY=0.5;exitDx=0;exitDy=0;entryX=0.342;entryY=0.038;entryDx=0;entryDy=0;entryPerimeter=0;" edge="1" parent="c-OSKFypWyapKS8Srcnh-3" source="c-OSKFypWyapKS8Srcnh-25" target="c-OSKFypWyapKS8Srcnh-27">
          <mxGeometry width="160" relative="1" as="geometry">
            <mxPoint x="330" y="230" as="sourcePoint" />
            <mxPoint x="490" y="230" as="targetPoint" />
          </mxGeometry>
        </mxCell>
        <mxCell id="c-OSKFypWyapKS8Srcnh-31" value="read booking detail" style="ellipse;whiteSpace=wrap;html=1;" vertex="1" parent="c-OSKFypWyapKS8Srcnh-3">
          <mxGeometry x="145" y="540" width="120" height="80" as="geometry" />
        </mxCell>
        <mxCell id="c-OSKFypWyapKS8Srcnh-34" value="&amp;lt;&amp;lt;extends&amp;gt;&amp;gt;" style="endArrow=open;endSize=12;dashed=1;html=1;rounded=0;exitX=0.5;exitY=1;exitDx=0;exitDy=0;entryX=0.5;entryY=0;entryDx=0;entryDy=0;" edge="1" parent="c-OSKFypWyapKS8Srcnh-3" source="c-OSKFypWyapKS8Srcnh-27" target="c-OSKFypWyapKS8Srcnh-31">
          <mxGeometry width="160" relative="1" as="geometry">
            <mxPoint x="350" y="370" as="sourcePoint" />
            <mxPoint x="510" y="370" as="targetPoint" />
          </mxGeometry>
        </mxCell>
        <mxCell id="c-OSKFypWyapKS8Srcnh-35" value="Enter organization offerings" style="ellipse;whiteSpace=wrap;html=1;" vertex="1" parent="c-OSKFypWyapKS8Srcnh-3">
          <mxGeometry x="390" y="380" width="100" height="70" as="geometry" />
        </mxCell>
        <mxCell id="c-OSKFypWyapKS8Srcnh-37" value="Delete account" style="ellipse;whiteSpace=wrap;html=1;" vertex="1" parent="c-OSKFypWyapKS8Srcnh-3">
          <mxGeometry x="295" y="460" width="100" height="80" as="geometry" />
        </mxCell>
        <mxCell id="c-OSKFypWyapKS8Srcnh-6" value="Instructor" style="shape=umlActor;verticalLabelPosition=bottom;verticalAlign=top;html=1;outlineConnect=0;" vertex="1" parent="1">
          <mxGeometry x="720" y="460" width="30" height="60" as="geometry" />
        </mxCell>
        <mxCell id="c-OSKFypWyapKS8Srcnh-7" value="Admin" style="shape=umlActor;verticalLabelPosition=bottom;verticalAlign=top;html=1;outlineConnect=0;" vertex="1" parent="1">
          <mxGeometry x="710" y="770" width="30" height="60" as="geometry" />
        </mxCell>
        <mxCell id="c-OSKFypWyapKS8Srcnh-11" value="Organization" style="shape=umlActor;verticalLabelPosition=bottom;verticalAlign=top;html=1;outlineConnect=0;" vertex="1" parent="1">
          <mxGeometry x="680" y="190" width="30" height="60" as="geometry" />
        </mxCell>
        <mxCell id="c-OSKFypWyapKS8Srcnh-14" value="" style="endArrow=none;html=1;rounded=0;exitX=1;exitY=0.5;exitDx=0;exitDy=0;" edge="1" parent="1" source="c-OSKFypWyapKS8Srcnh-10" target="c-OSKFypWyapKS8Srcnh-11">
          <mxGeometry width="50" height="50" relative="1" as="geometry">
            <mxPoint x="450" y="460" as="sourcePoint" />
            <mxPoint x="500" y="410" as="targetPoint" />
          </mxGeometry>
        </mxCell>
        <mxCell id="c-OSKFypWyapKS8Srcnh-23" value="" style="endArrow=none;html=1;rounded=0;entryX=0.5;entryY=0.5;entryDx=0;entryDy=0;entryPerimeter=0;exitX=1;exitY=0.5;exitDx=0;exitDy=0;" edge="1" parent="1" source="c-OSKFypWyapKS8Srcnh-19" target="c-OSKFypWyapKS8Srcnh-6">
          <mxGeometry width="50" height="50" relative="1" as="geometry">
            <mxPoint x="480" y="640" as="sourcePoint" />
            <mxPoint x="530" y="590" as="targetPoint" />
          </mxGeometry>
        </mxCell>
        <mxCell id="c-OSKFypWyapKS8Srcnh-24" value="" style="endArrow=none;html=1;rounded=0;entryX=0.5;entryY=0.5;entryDx=0;entryDy=0;entryPerimeter=0;exitX=1;exitY=1;exitDx=0;exitDy=0;" edge="1" parent="1" source="c-OSKFypWyapKS8Srcnh-25" target="c-OSKFypWyapKS8Srcnh-6">
          <mxGeometry width="50" height="50" relative="1" as="geometry">
            <mxPoint x="870" y="560" as="sourcePoint" />
            <mxPoint x="530" y="590" as="targetPoint" />
          </mxGeometry>
        </mxCell>
        <mxCell id="c-OSKFypWyapKS8Srcnh-29" value="" style="endArrow=none;html=1;rounded=0;entryX=0.5;entryY=0.5;entryDx=0;entryDy=0;entryPerimeter=0;exitX=0.008;exitY=0.425;exitDx=0;exitDy=0;exitPerimeter=0;" edge="1" parent="1" source="c-OSKFypWyapKS8Srcnh-27" target="c-OSKFypWyapKS8Srcnh-1">
          <mxGeometry width="50" height="50" relative="1" as="geometry">
            <mxPoint x="480" y="540" as="sourcePoint" />
            <mxPoint x="530" y="490" as="targetPoint" />
          </mxGeometry>
        </mxCell>
        <mxCell id="c-OSKFypWyapKS8Srcnh-30" value="" style="endArrow=none;html=1;rounded=0;exitX=0;exitY=0.5;exitDx=0;exitDy=0;entryX=0.5;entryY=0.5;entryDx=0;entryDy=0;entryPerimeter=0;" edge="1" parent="1" source="c-OSKFypWyapKS8Srcnh-19" target="c-OSKFypWyapKS8Srcnh-1">
          <mxGeometry width="50" height="50" relative="1" as="geometry">
            <mxPoint x="480" y="540" as="sourcePoint" />
            <mxPoint x="530" y="490" as="targetPoint" />
          </mxGeometry>
        </mxCell>
        <mxCell id="c-OSKFypWyapKS8Srcnh-32" value="" style="endArrow=none;html=1;rounded=0;entryX=0.5;entryY=0.5;entryDx=0;entryDy=0;entryPerimeter=0;exitX=0;exitY=0.5;exitDx=0;exitDy=0;" edge="1" parent="1" source="c-OSKFypWyapKS8Srcnh-31" target="c-OSKFypWyapKS8Srcnh-1">
          <mxGeometry width="50" height="50" relative="1" as="geometry">
            <mxPoint x="480" y="540" as="sourcePoint" />
            <mxPoint x="530" y="490" as="targetPoint" />
          </mxGeometry>
        </mxCell>
        <mxCell id="c-OSKFypWyapKS8Srcnh-33" value="" style="endArrow=none;html=1;rounded=0;entryX=0.5;entryY=0.5;entryDx=0;entryDy=0;entryPerimeter=0;exitX=0.983;exitY=0.65;exitDx=0;exitDy=0;exitPerimeter=0;" edge="1" parent="1" source="c-OSKFypWyapKS8Srcnh-31" target="c-OSKFypWyapKS8Srcnh-7">
          <mxGeometry width="50" height="50" relative="1" as="geometry">
            <mxPoint x="480" y="540" as="sourcePoint" />
            <mxPoint x="530" y="490" as="targetPoint" />
          </mxGeometry>
        </mxCell>
        <mxCell id="c-OSKFypWyapKS8Srcnh-36" value="" style="endArrow=none;html=1;rounded=0;entryX=0.5;entryY=0.5;entryDx=0;entryDy=0;entryPerimeter=0;exitX=1;exitY=1;exitDx=0;exitDy=0;" edge="1" parent="1" source="c-OSKFypWyapKS8Srcnh-35" target="c-OSKFypWyapKS8Srcnh-7">
          <mxGeometry width="50" height="50" relative="1" as="geometry">
            <mxPoint x="480" y="540" as="sourcePoint" />
            <mxPoint x="530" y="490" as="targetPoint" />
          </mxGeometry>
        </mxCell>
        <mxCell id="c-OSKFypWyapKS8Srcnh-38" value="" style="endArrow=none;html=1;rounded=0;exitX=1;exitY=1;exitDx=0;exitDy=0;" edge="1" parent="1" source="c-OSKFypWyapKS8Srcnh-37" target="c-OSKFypWyapKS8Srcnh-7">
          <mxGeometry width="50" height="50" relative="1" as="geometry">
            <mxPoint x="480" y="540" as="sourcePoint" />
            <mxPoint x="530" y="490" as="targetPoint" />
          </mxGeometry>
        </mxCell>
        <mxCell id="c-OSKFypWyapKS8Srcnh-39" style="edgeStyle=orthogonalEdgeStyle;rounded=0;orthogonalLoop=1;jettySize=auto;html=1;exitX=0.5;exitY=0;exitDx=0;exitDy=0;exitPerimeter=0;entryX=0.25;entryY=0.1;entryDx=0;entryDy=0;entryPerimeter=0;" edge="1" parent="1" source="c-OSKFypWyapKS8Srcnh-1" target="c-OSKFypWyapKS8Srcnh-1">
          <mxGeometry relative="1" as="geometry" />
        </mxCell>
      </root>
    </mxGraphModel>
  </diagram>
</mxfile>
